<svg width="131" height="37" viewBox="0 0 131 37" fill="none" xmlns="http://www.w3.org/2000/svg">
<path d="M5.304 36H0.84V11.04H5.304V36ZM3.048 6.528C2.248 6.528 1.56 6.272 0.984 5.76C0.44 5.216 0.168 4.496 0.168 3.6C0.168 2.704 0.44 2 0.984 1.488C1.56 0.943997 2.248 0.671997 3.048 0.671997C3.848 0.671997 4.52 0.943997 5.064 1.488C5.64 2 5.928 2.704 5.928 3.6C5.928 4.496 5.64 5.216 5.064 5.76C4.52 6.272 3.848 6.528 3.048 6.528ZM16.0526 34.344C17.3966 34.344 18.5006 34.128 19.3646 33.696C20.2526 33.24 20.6966 32.484 20.6966 31.428C20.6966 30.924 20.6126 30.492 20.4446 30.132C20.3006 29.772 20.0486 29.448 19.6886 29.16C19.3286 28.872 18.8486 28.596 18.2486 28.332C17.6726 28.068 16.9526 27.756 16.0886 27.396C15.3926 27.108 14.7326 26.82 14.1086 26.532C13.4846 26.22 12.9326 25.872 12.4526 25.488C11.9726 25.08 11.5886 24.6 11.3006 24.048C11.0126 23.496 10.8686 22.824 10.8686 22.032C10.8686 20.52 11.4326 19.296 12.5606 18.36C13.7126 17.424 15.2846 16.956 17.2766 16.956C18.5486 16.956 19.5926 17.064 20.4086 17.28C21.2486 17.496 21.8366 17.688 22.1726 17.856L21.6326 19.944C21.3446 19.8 20.8526 19.608 20.1566 19.368C19.4846 19.128 18.4886 19.008 17.1686 19.008C16.6406 19.008 16.1366 19.068 15.6566 19.188C15.2006 19.284 14.7926 19.452 14.4326 19.692C14.0726 19.908 13.7846 20.196 13.5686 20.556C13.3526 20.892 13.2446 21.312 13.2446 21.816C13.2446 22.32 13.3406 22.752 13.5326 23.112C13.7246 23.472 14.0006 23.796 14.3606 24.084C14.7446 24.348 15.2006 24.6 15.7286 24.84C16.2806 25.08 16.9046 25.344 17.6006 25.632C18.3206 25.92 19.0046 26.22 19.6526 26.532C20.3246 26.82 20.9126 27.18 21.4166 27.612C21.9206 28.02 22.3286 28.524 22.6406 29.124C22.9526 29.7 23.1086 30.432 23.1086 31.32C23.1086 33 22.4726 34.272 21.2006 35.136C19.9526 36 18.2366 36.432 16.0526 36.432C14.4206 36.432 13.1726 36.288 12.3086 36C11.4446 35.736 10.8686 35.532 10.5806 35.388L11.1926 33.264C11.2646 33.312 11.4206 33.396 11.6606 33.516C11.9006 33.612 12.2246 33.732 12.6326 33.876C13.0406 33.996 13.5206 34.104 14.0726 34.2C14.6486 34.296 15.3086 34.344 16.0526 34.344ZM31.4511 34.344C32.7951 34.344 33.8991 34.128 34.7631 33.696C35.6511 33.24 36.0951 32.484 36.0951 31.428C36.0951 30.924 36.0111 30.492 35.8431 30.132C35.6991 29.772 35.4471 29.448 35.0871 29.16C34.7271 28.872 34.2471 28.596 33.6471 28.332C33.0711 28.068 32.3511 27.756 31.4871 27.396C30.7911 27.108 30.1311 26.82 29.5071 26.532C28.8831 26.22 28.3311 25.872 27.8511 25.488C27.3711 25.08 26.9871 24.6 26.6991 24.048C26.4111 23.496 26.2671 22.824 26.2671 22.032C26.2671 20.52 26.8311 19.296 27.9591 18.36C29.1111 17.424 30.6831 16.956 32.6751 16.956C33.9471 16.956 34.9911 17.064 35.8071 17.28C36.6471 17.496 37.2351 17.688 37.5711 17.856L37.0311 19.944C36.7431 19.8 36.2511 19.608 35.5551 19.368C34.8831 19.128 33.8871 19.008 32.5671 19.008C32.0391 19.008 31.5351 19.068 31.0551 19.188C30.5991 19.284 30.1911 19.452 29.8311 19.692C29.4711 19.908 29.1831 20.196 28.9671 20.556C28.7511 20.892 28.6431 21.312 28.6431 21.816C28.6431 22.32 28.7391 22.752 28.9311 23.112C29.1231 23.472 29.3991 23.796 29.7591 24.084C30.1431 24.348 30.5991 24.6 31.1271 24.84C31.6791 25.08 32.3031 25.344 32.9991 25.632C33.7191 25.92 34.4031 26.22 35.0511 26.532C35.7231 26.82 36.3111 27.18 36.8151 27.612C37.3191 28.02 37.7271 28.524 38.0391 29.124C38.3511 29.7 38.5071 30.432 38.5071 31.32C38.5071 33 37.8711 34.272 36.5991 35.136C35.3511 36 33.6351 36.432 31.4511 36.432C29.8191 36.432 28.5711 36.288 27.7071 36C26.8431 35.736 26.2671 35.532 25.9791 35.388L26.5911 33.264C26.6631 33.312 26.8191 33.396 27.0591 33.516C27.2991 33.612 27.6231 33.732 28.0311 33.876C28.4391 33.996 28.9191 34.104 29.4711 34.2C30.0471 34.296 30.7071 34.344 31.4511 34.344ZM46.3455 34.452C46.3455 35.004 46.1655 35.472 45.8055 35.856C45.4695 36.24 44.9895 36.432 44.3655 36.432C43.7415 36.432 43.2495 36.24 42.8895 35.856C42.5535 35.472 42.3855 35.004 42.3855 34.452C42.3855 33.9 42.5535 33.432 42.8895 33.048C43.2495 32.664 43.7415 32.472 44.3655 32.472C44.9895 32.472 45.4695 32.664 45.8055 33.048C46.1655 33.432 46.3455 33.9 46.3455 34.452ZM55.2049 34.452C55.2049 35.004 55.0249 35.472 54.6649 35.856C54.3289 36.24 53.8489 36.432 53.2249 36.432C52.6009 36.432 52.1089 36.24 51.7489 35.856C51.4129 35.472 51.2449 35.004 51.2449 34.452C51.2449 33.9 51.4129 33.432 51.7489 33.048C52.1089 32.664 52.6009 32.472 53.2249 32.472C53.8489 32.472 54.3289 32.664 54.6649 33.048C55.0249 33.432 55.2049 33.9 55.2049 34.452ZM64.0643 34.452C64.0643 35.004 63.8843 35.472 63.5243 35.856C63.1883 36.24 62.7083 36.432 62.0843 36.432C61.4603 36.432 60.9683 36.24 60.6083 35.856C60.2723 35.472 60.1043 35.004 60.1043 34.452C60.1043 33.9 60.2723 33.432 60.6083 33.048C60.9683 32.664 61.4603 32.472 62.0843 32.472C62.7083 32.472 63.1883 32.664 63.5243 33.048C63.8843 33.432 64.0643 33.9 64.0643 34.452ZM73.4276 34.344C74.7716 34.344 75.8756 34.128 76.7396 33.696C77.6276 33.24 78.0716 32.484 78.0716 31.428C78.0716 30.924 77.9876 30.492 77.8196 30.132C77.6756 29.772 77.4236 29.448 77.0636 29.16C76.7036 28.872 76.2236 28.596 75.6236 28.332C75.0476 28.068 74.3276 27.756 73.4636 27.396C72.7676 27.108 72.1076 26.82 71.4836 26.532C70.8596 26.22 70.3076 25.872 69.8276 25.488C69.3476 25.08 68.9636 24.6 68.6756 24.048C68.3876 23.496 68.2436 22.824 68.2436 22.032C68.2436 20.52 68.8076 19.296 69.9356 18.36C71.0876 17.424 72.6596 16.956 74.6516 16.956C75.9236 16.956 76.9676 17.064 77.7836 17.28C78.6236 17.496 79.2116 17.688 79.5476 17.856L79.0076 19.944C78.7196 19.8 78.2276 19.608 77.5316 19.368C76.8596 19.128 75.8636 19.008 74.5436 19.008C74.0156 19.008 73.5116 19.068 73.0316 19.188C72.5756 19.284 72.1676 19.452 71.8076 19.692C71.4476 19.908 71.1596 20.196 70.9436 20.556C70.7276 20.892 70.6196 21.312 70.6196 21.816C70.6196 22.32 70.7156 22.752 70.9076 23.112C71.0996 23.472 71.3756 23.796 71.7356 24.084C72.1196 24.348 72.5756 24.6 73.1036 24.84C73.6556 25.08 74.2796 25.344 74.9756 25.632C75.6956 25.92 76.3796 26.22 77.0276 26.532C77.6996 26.82 78.2876 27.18 78.7916 27.612C79.2956 28.02 79.7036 28.524 80.0156 29.124C80.3276 29.7 80.4836 30.432 80.4836 31.32C80.4836 33 79.8476 34.272 78.5756 35.136C77.3276 36 75.6116 36.432 73.4276 36.432C71.7956 36.432 70.5476 36.288 69.6836 36C68.8196 35.736 68.2436 35.532 67.9556 35.388L68.5676 33.264C68.6396 33.312 68.7956 33.396 69.0356 33.516C69.2756 33.612 69.5996 33.732 70.0076 33.876C70.4156 33.996 70.8956 34.104 71.4476 34.2C72.0236 34.296 72.6836 34.344 73.4276 34.344ZM90.8781 34.308C91.7901 34.308 92.5821 34.284 93.2541 34.236C93.9501 34.164 94.5381 34.08 95.0181 33.984V27.432C94.7541 27.312 94.3341 27.192 93.7581 27.072C93.1821 26.928 92.3901 26.856 91.3821 26.856C90.8061 26.856 90.2061 26.904 89.5821 27C88.9581 27.072 88.3821 27.252 87.8541 27.54C87.3261 27.804 86.8941 28.176 86.5581 28.656C86.2221 29.136 86.0541 29.772 86.0541 30.564C86.0541 31.26 86.1621 31.848 86.3781 32.328C86.6181 32.808 86.9421 33.192 87.3501 33.48C87.7821 33.768 88.2861 33.984 88.8621 34.128C89.4621 34.248 90.1341 34.308 90.8781 34.308ZM90.6621 16.956C91.8861 16.956 92.9181 17.136 93.7581 17.496C94.6221 17.832 95.3181 18.312 95.8461 18.936C96.3741 19.536 96.7581 20.256 96.9981 21.096C97.2381 21.936 97.3581 22.848 97.3581 23.832V35.568C97.1181 35.64 96.7701 35.724 96.3141 35.82C95.8581 35.892 95.3301 35.976 94.7301 36.072C94.1301 36.168 93.4581 36.24 92.7141 36.288C91.9941 36.36 91.2501 36.396 90.4821 36.396C89.4981 36.396 88.5861 36.288 87.7461 36.072C86.9301 35.856 86.2101 35.52 85.5861 35.064C84.9861 34.584 84.5061 33.984 84.1461 33.264C83.8101 32.52 83.6421 31.62 83.6421 30.564C83.6421 29.556 83.8341 28.692 84.2181 27.972C84.6021 27.252 85.1421 26.664 85.8381 26.208C86.5341 25.728 87.3621 25.38 88.3221 25.164C89.2821 24.948 90.3261 24.84 91.4541 24.84C91.7901 24.84 92.1381 24.864 92.4981 24.912C92.8821 24.936 93.2421 24.984 93.5781 25.056C93.9381 25.104 94.2381 25.164 94.4781 25.236C94.7421 25.284 94.9221 25.332 95.0181 25.38V24.228C95.0181 23.58 94.9701 22.956 94.8741 22.356C94.7781 21.732 94.5621 21.18 94.2261 20.7C93.9141 20.196 93.4581 19.8 92.8581 19.512C92.2821 19.2 91.5141 19.044 90.5541 19.044C89.1861 19.044 88.1661 19.14 87.4941 19.332C86.8221 19.524 86.3301 19.68 86.0181 19.8L85.6941 17.748C86.1021 17.556 86.7261 17.376 87.5661 17.208C88.4301 17.04 89.4621 16.956 90.6621 16.956ZM111.03 36.396C109.59 36.396 108.318 36.168 107.214 35.712C106.11 35.256 105.186 34.608 104.442 33.768C103.722 32.904 103.17 31.884 102.786 30.708C102.402 29.508 102.21 28.188 102.21 26.748C102.21 25.284 102.402 23.952 102.786 22.752C103.194 21.552 103.77 20.52 104.514 19.656C105.258 18.792 106.158 18.132 107.214 17.676C108.27 17.196 109.458 16.956 110.778 16.956C111.786 16.956 112.722 17.04 113.586 17.208C114.474 17.376 115.158 17.592 115.638 17.856L115.026 19.872C114.546 19.632 114.006 19.44 113.406 19.296C112.806 19.152 112.002 19.08 110.994 19.08C108.93 19.08 107.358 19.752 106.278 21.096C105.222 22.416 104.694 24.3 104.694 26.748C104.694 27.852 104.814 28.872 105.054 29.808C105.294 30.72 105.678 31.512 106.206 32.184C106.758 32.832 107.454 33.348 108.294 33.732C109.158 34.092 110.202 34.272 111.426 34.272C112.434 34.272 113.274 34.164 113.946 33.948C114.642 33.708 115.146 33.504 115.458 33.336L115.962 35.352C115.53 35.592 114.846 35.82 113.91 36.036C112.998 36.276 112.038 36.396 111.03 36.396ZM122.081 17.388H129.497V19.368H122.081V29.268C122.081 30.324 122.165 31.188 122.333 31.86C122.525 32.508 122.789 33.012 123.125 33.372C123.461 33.732 123.869 33.972 124.349 34.092C124.829 34.212 125.357 34.272 125.933 34.272C126.917 34.272 127.709 34.164 128.309 33.948C128.909 33.708 129.377 33.492 129.713 33.3L130.289 35.244C129.953 35.46 129.365 35.712 128.525 36C127.685 36.264 126.773 36.396 125.789 36.396C124.637 36.396 123.665 36.252 122.873 35.964C122.105 35.652 121.481 35.196 121.001 34.596C120.545 33.972 120.221 33.204 120.029 32.292C119.837 31.38 119.741 30.3 119.741 29.052V11.916L122.081 11.484V17.388Z" fill="#404040"/>
</svg>
