<svg width="358" height="270" viewBox="0 0 358 270" fill="none" xmlns="http://www.w3.org/2000/svg">
<rect x="1" y="1" width="356" height="268" rx="9" fill="white" stroke="#E0E0E0" stroke-width="2"/>
<path d="M118.073 185.24C116.793 185.24 115.785 184.944 115.049 184.352C114.329 183.744 113.817 182.928 113.513 181.904C113.225 180.88 113.081 179.752 113.081 178.52C113.081 176.712 113.329 175.312 113.825 174.32C114.321 173.312 115.009 172.608 115.889 172.208C116.785 171.808 117.817 171.608 118.985 171.608C120.905 171.608 122.297 172.024 123.161 172.856C124.041 173.688 124.481 174.816 124.481 176.24V185H122.369V176.432C122.369 175.44 122.121 174.688 121.625 174.176C121.129 173.648 120.273 173.384 119.057 173.384C118.321 173.384 117.657 173.52 117.065 173.792C116.489 174.064 116.033 174.568 115.697 175.304C115.377 176.04 115.217 177.12 115.217 178.544C115.217 179.472 115.305 180.312 115.481 181.064C115.673 181.8 116.001 182.384 116.465 182.816C116.929 183.248 117.577 183.464 118.409 183.464C118.649 183.464 118.873 183.448 119.081 183.416C119.289 183.384 119.489 183.336 119.681 183.272L119.897 184.928C119.641 185.04 119.345 185.12 119.009 185.168C118.689 185.216 118.377 185.24 118.073 185.24ZM121.361 191.36C120.337 191.36 119.561 191.152 119.033 190.736C118.489 190.336 118.217 189.76 118.217 189.008V188.6C118.217 188.328 118.153 188.16 118.025 188.096C117.881 188.048 117.689 188.056 117.449 188.12L117.305 186.68C117.529 186.616 117.753 186.576 117.977 186.56C118.185 186.544 118.345 186.536 118.457 186.536C119.033 186.536 119.449 186.664 119.705 186.92C119.945 187.176 120.065 187.536 120.065 188V188.816C120.065 189.12 120.161 189.376 120.353 189.584C120.545 189.792 120.873 189.896 121.337 189.896C121.817 189.896 122.153 189.792 122.345 189.584C122.521 189.376 122.609 189.12 122.609 188.816V186.608H124.481V188.936C124.481 190.552 123.441 191.36 121.361 191.36ZM133.654 185.24C131.766 185.24 130.414 184.808 129.598 183.944C128.782 183.08 128.374 181.848 128.374 180.248V171.848H130.51V180.272C130.51 182.4 131.558 183.464 133.654 183.464C134.742 183.464 135.542 183.2 136.054 182.672C136.582 182.144 136.846 181.344 136.846 180.272V171.848H138.982V180.248C138.982 181.848 138.566 183.08 137.734 183.944C136.918 184.808 135.558 185.24 133.654 185.24ZM142.93 185V171.848H144.418L144.802 173.936H144.898C145.17 173.216 145.666 172.648 146.386 172.232C147.106 171.816 147.978 171.608 149.002 171.608C150.426 171.608 151.546 171.976 152.362 172.712C153.178 173.448 153.586 174.616 153.586 176.216V185H151.45V176.336C151.45 174.384 150.498 173.408 148.594 173.408C147.842 173.408 147.202 173.584 146.674 173.936C146.146 174.288 145.746 174.768 145.474 175.376C145.202 175.968 145.066 176.64 145.066 177.392V185H142.93ZM157.483 185V176.6C157.483 174.984 157.915 173.752 158.779 172.904C159.643 172.04 161.019 171.608 162.907 171.608C164.811 171.608 166.187 172.04 167.035 172.904C167.899 173.752 168.331 174.984 168.331 176.6V185H166.195V176.6C166.195 174.456 165.091 173.384 162.883 173.384C160.707 173.384 159.619 174.456 159.619 176.6V179.264L159.691 179.288C160.043 178.664 160.475 178.256 160.987 178.064C161.499 177.856 162.219 177.752 163.147 177.752H163.939V179.504H163.147C162.171 179.504 161.427 179.64 160.915 179.912C160.419 180.184 160.075 180.544 159.883 180.992C159.707 181.424 159.619 181.912 159.619 182.456V185H157.483ZM174.865 185.24C174.241 185.24 173.633 185.176 173.041 185.048C172.465 184.92 171.849 184.68 171.193 184.328L171.865 182.696C172.217 182.904 172.617 183.088 173.065 183.248C173.513 183.392 174.033 183.464 174.625 183.464C175.809 183.464 176.729 183.032 177.385 182.168C178.057 181.288 178.393 180.024 178.393 178.376C178.393 176.76 178.049 175.528 177.361 174.68C176.689 173.816 175.649 173.384 174.241 173.384C173.729 173.384 173.209 173.44 172.681 173.552C172.153 173.664 171.689 173.832 171.289 174.056V172.256C171.753 172.016 172.257 171.848 172.801 171.752C173.361 171.656 173.921 171.608 174.481 171.608C175.921 171.608 177.089 171.896 177.985 172.472C178.881 173.032 179.537 173.816 179.953 174.824C180.369 175.832 180.577 177.016 180.577 178.376C180.577 180.488 180.097 182.16 179.137 183.392C178.193 184.624 176.769 185.24 174.865 185.24ZM187.758 185V175.664C187.758 174.88 187.574 174.304 187.206 173.936C186.854 173.568 186.254 173.384 185.406 173.384C184.83 173.384 184.286 173.464 183.774 173.624C183.278 173.768 182.798 173.976 182.334 174.248V172.328C182.654 172.168 183.11 172.008 183.702 171.848C184.294 171.688 184.998 171.608 185.814 171.608C187.062 171.608 188.054 171.888 188.79 172.448C189.526 173.008 189.894 173.976 189.894 175.352V185H187.758ZM200.124 185.24C199.1 185.24 198.212 185.04 197.46 184.64C196.724 184.224 196.22 183.648 195.948 182.912H195.852L195.732 185H193.98V171.848H196.116V179.456C196.116 180.672 196.428 181.64 197.052 182.36C197.676 183.08 198.556 183.44 199.692 183.44C201.564 183.44 202.5 182.464 202.5 180.512V171.848H204.636V180.656C204.636 182.24 204.236 183.4 203.436 184.136C202.652 184.872 201.548 185.24 200.124 185.24ZM213.186 185.24C211.458 185.24 210.162 184.792 209.298 183.896C208.45 182.984 208.026 181.56 208.026 179.624C208.026 179.304 208.034 178.96 208.05 178.592C208.082 178.208 208.114 177.832 208.146 177.464H213.186V179.144H210.162V179.624C210.162 180.632 210.274 181.424 210.498 182C210.722 182.56 211.05 182.952 211.482 183.176C211.93 183.4 212.482 183.512 213.138 183.512C213.858 183.512 214.482 183.376 215.01 183.104C215.538 182.832 215.946 182.336 216.234 181.616C216.522 180.896 216.666 179.864 216.666 178.52C216.666 176.76 216.362 175.464 215.754 174.632C215.162 173.8 214.13 173.384 212.658 173.384C211.89 173.384 211.154 173.488 210.45 173.696C209.762 173.888 209.098 174.168 208.458 174.536V172.544C208.938 172.288 209.57 172.072 210.354 171.896C211.138 171.704 211.994 171.608 212.922 171.608C214.33 171.608 215.466 171.896 216.33 172.472C217.21 173.032 217.85 173.832 218.25 174.872C218.65 175.896 218.85 177.112 218.85 178.52C218.85 179.928 218.666 181.136 218.298 182.144C217.93 183.152 217.33 183.92 216.498 184.448C215.682 184.976 214.578 185.24 213.186 185.24ZM207.797 169.76V168.824L209.549 168.056H212.741V166.112H214.517V168.056H216.245V166.112H217.997V169.76H207.797ZM214.41 164.696V160.784H216.45V164.696H214.41ZM226.847 185.24C225.439 185.24 224.327 184.872 223.511 184.136C222.711 183.4 222.311 182.232 222.311 180.632V171.848H224.447V180.512C224.447 182.464 225.399 183.44 227.303 183.44C228.423 183.44 229.287 183.08 229.895 182.36C230.519 181.64 230.831 180.672 230.831 179.456V171.848H232.967V185H231.191L231.095 183.056H230.975C230.687 183.696 230.183 184.224 229.463 184.64C228.759 185.04 227.887 185.24 226.847 185.24ZM245.334 189.824V174.776C245.334 174.264 245.238 173.904 245.046 173.696C244.87 173.472 244.598 173.36 244.23 173.36C243.862 173.36 243.582 173.472 243.39 173.696C243.214 173.904 243.126 174.264 243.126 174.776V175.808H241.326V174.776C241.326 174.264 241.23 173.904 241.038 173.696C240.846 173.472 240.574 173.36 240.222 173.36C239.822 173.36 239.518 173.544 239.31 173.912C239.118 174.264 239.022 174.872 239.022 175.736C239.022 176.712 239.142 177.384 239.382 177.752C239.622 178.12 239.982 178.304 240.462 178.304C240.75 178.304 241.07 178.24 241.422 178.112L241.83 179.696C241.574 179.808 241.31 179.904 241.038 179.984C240.766 180.048 240.47 180.08 240.15 180.08C239.046 180.08 238.238 179.704 237.726 178.952C237.214 178.2 236.958 177.144 236.958 175.784C236.958 174.264 237.23 173.192 237.774 172.568C238.318 171.928 239.046 171.608 239.958 171.608C240.486 171.608 240.958 171.712 241.374 171.92C241.79 172.112 242.086 172.424 242.262 172.856H242.334C242.526 172.424 242.822 172.112 243.222 171.92C243.638 171.712 244.118 171.608 244.662 171.608C245.43 171.608 246.078 171.816 246.606 172.232C247.15 172.648 247.422 173.416 247.422 174.536V189.824H245.334ZM139.239 213V199.848H140.727L141.111 201.936H141.207C141.479 201.216 141.975 200.648 142.695 200.232C143.415 199.816 144.287 199.608 145.311 199.608C146.735 199.608 147.855 199.976 148.671 200.712C149.487 201.448 149.895 202.616 149.895 204.216V213H147.759V204.336C147.759 202.384 146.807 201.408 144.903 201.408C144.151 201.408 143.511 201.584 142.983 201.936C142.455 202.288 142.055 202.768 141.783 203.376C141.511 203.968 141.375 204.64 141.375 205.392V213H139.239ZM139.441 197.76V196.824L141.193 196.056H147.649V194.112H149.665V196.824H149.641V197.76H139.441ZM147.625 192.696V188.784H149.665V192.696H147.625ZM158.328 213.24C156.92 213.24 155.808 212.872 154.992 212.136C154.192 211.4 153.792 210.232 153.792 208.632V199.848H155.928V208.512C155.928 210.464 156.88 211.44 158.784 211.44C159.904 211.44 160.768 211.08 161.376 210.36C162 209.64 162.312 208.672 162.312 207.456V199.848H164.448V213H162.672L162.576 211.056H162.456C162.168 211.696 161.664 212.224 160.944 212.64C160.24 213.04 159.368 213.24 158.328 213.24ZM162.294 197.76V192.696H164.406V197.76H162.294ZM172.23 213V203.664C172.23 202.88 172.046 202.304 171.678 201.936C171.326 201.568 170.726 201.384 169.878 201.384C169.302 201.384 168.758 201.464 168.246 201.624C167.75 201.768 167.27 201.976 166.806 202.248V200.328C167.126 200.168 167.582 200.008 168.174 199.848C168.766 199.688 169.47 199.608 170.286 199.608C171.534 199.608 172.526 199.888 173.262 200.448C173.998 201.008 174.366 201.976 174.366 203.352V213H172.23ZM181.836 213.24C180.428 213.24 179.348 212.92 178.596 212.28C177.86 211.624 177.492 210.688 177.492 209.472C177.492 208.144 177.972 207.12 178.932 206.4C179.908 205.68 181.484 205.256 183.66 205.128L185.964 204.984V204.24C185.964 203.2 185.724 202.464 185.244 202.032C184.78 201.584 183.996 201.36 182.892 201.36C182.092 201.36 181.324 201.472 180.588 201.696C179.868 201.904 179.18 202.2 178.524 202.584V200.592C178.988 200.352 179.612 200.128 180.396 199.92C181.196 199.712 182.092 199.608 183.084 199.608C183.724 199.608 184.292 199.664 184.788 199.776C185.3 199.888 185.724 200.08 186.06 200.352C186.332 200.224 186.564 200.048 186.756 199.824C186.948 199.6 187.044 199.32 187.044 198.984H189.132C189.132 199.592 188.956 200.104 188.604 200.52C188.268 200.936 187.836 201.256 187.308 201.48C187.58 201.768 187.772 202.136 187.884 202.584C188.012 203.032 188.076 203.544 188.076 204.12V213H185.964V206.76L183.948 206.904C182.316 207.016 181.188 207.272 180.564 207.672C179.956 208.072 179.652 208.656 179.652 209.424C179.652 210.144 179.876 210.672 180.324 211.008C180.788 211.344 181.428 211.512 182.244 211.512C182.772 211.512 183.236 211.44 183.636 211.296L183.972 212.904C183.668 213.016 183.332 213.096 182.964 213.144C182.612 213.208 182.236 213.24 181.836 213.24ZM196.531 213.24C195.123 213.24 194.011 212.872 193.195 212.136C192.395 211.4 191.995 210.232 191.995 208.632V199.848H194.131V208.512C194.131 210.464 195.083 211.44 196.987 211.44C198.107 211.44 198.971 211.08 199.579 210.36C200.203 209.64 200.515 208.672 200.515 207.456V199.848H202.651V213H200.875L200.779 211.056H200.659C200.371 211.696 199.867 212.224 199.147 212.64C198.443 213.04 197.571 213.24 196.531 213.24ZM209.474 213.24C209.026 213.24 208.602 213.168 208.202 213.024C207.802 212.88 207.474 212.624 207.218 212.256C206.962 211.888 206.834 211.376 206.834 210.72V201.336C206.834 200.888 206.874 200.528 206.954 200.256C207.034 199.968 207.162 199.688 207.338 199.416C207.53 199.144 207.794 198.8 208.13 198.384C208.53 197.888 208.826 197.48 209.018 197.16C209.21 196.84 209.306 196.488 209.306 196.104C209.306 195.176 208.738 194.712 207.602 194.712C207.106 194.712 206.65 194.784 206.234 194.928C205.834 195.072 205.498 195.216 205.226 195.36V193.536C205.45 193.408 205.786 193.288 206.234 193.176C206.698 193.048 207.242 192.984 207.866 192.984C208.922 192.984 209.77 193.224 210.41 193.704C211.066 194.168 211.394 194.888 211.394 195.864C211.394 196.504 211.274 197.064 211.034 197.544C210.794 198.024 210.514 198.456 210.194 198.84C209.922 199.192 209.69 199.488 209.498 199.728C209.322 199.952 209.186 200.184 209.09 200.424C209.01 200.664 208.97 200.984 208.97 201.384V210.456C208.97 210.824 209.05 211.088 209.21 211.248C209.37 211.408 209.618 211.488 209.954 211.488C210.13 211.488 210.298 211.472 210.458 211.44C210.618 211.408 210.762 211.368 210.89 211.32L211.178 212.88C210.874 213.024 210.578 213.12 210.29 213.168C210.018 213.216 209.746 213.24 209.474 213.24ZM214.532 213V207.144H212.708V205.464H216.572V211.272H216.884C217.972 211.272 218.78 210.904 219.308 210.168C219.852 209.416 220.124 208.152 220.124 206.376C220.124 204.6 219.82 203.328 219.212 202.56C218.604 201.776 217.564 201.384 216.092 201.384C215.34 201.384 214.612 201.488 213.908 201.696C213.22 201.888 212.556 202.192 211.916 202.608V200.616C212.396 200.328 213.028 200.088 213.812 199.896C214.596 199.704 215.444 199.608 216.356 199.608C217.812 199.608 218.972 199.88 219.836 200.424C220.716 200.952 221.348 201.72 221.732 202.728C222.116 203.736 222.308 204.96 222.308 206.4C222.308 207.792 222.116 208.984 221.732 209.976C221.364 210.952 220.756 211.704 219.908 212.232C219.076 212.744 217.956 213 216.548 213H214.532Z" fill="#828282"/>
<path d="M179.977 93.5938L130.758 128.609V122.633L174 91.2031L130.758 61.3203V55.3438L179.977 88.7422V93.5938ZM209.671 93.5938L160.452 128.609V122.633L203.694 91.2031L160.452 61.3203V55.3438L209.671 88.7422V93.5938ZM239.365 93.5938L190.147 128.609V122.633L233.389 91.2031L190.147 61.3203V55.3438L239.365 88.7422V93.5938Z" fill="#E0E0E0"/>
</svg>
